# xmcd CD database file generated by Grip 3.2.0
# 
# Track frame offsets:
#       150
#       4720
#       20532
#       32925
#       52992
#       64440
#       76217
#       94297
#       107992
#       131035
#       154192
#       167947
#       180852
# 
# Disc length: 2574 seconds
# 
# Revision: 2
# Processed by: cddbd v1.5.2PL0 Copyright (c) Steve Scherf et al.
# Submitted via: Grip 3.2.0
# 
DISCID=a80a0c0d
DTITLE=Adoniran Barbosa - Adoniran Barbosa Ao Vivo
DYEAR=2000
DGENRE=Blues
TTITLE0=Abertura: Trem Das Onze
TTITLE1=Ja Fui Uma Brasa
TTITLE2=As Mariposa
TTITLE3=Um Samba No Bexiga
TTITLE4=Samba Italiano
TTITLE5=Bom Dia Tristeza
TTITLE6=Apaga O Fogo Mane
TTITLE7=Samba Do Arnesto
TTITLE8=Despejo Na Favela
TTITLE9=Uma Simples Margarida (Samba Do Metro)
TTITLE10=Viaduto Santa Ifigenia
TTITLE11=Iracema
TTITLE12=Rua Dos Gusmoes
EXTD=
EXTT0=
EXTT1=
EXTT2=
EXTT3=
EXTT4=
EXTT5=
EXTT6=
EXTT7=
EXTT8=
EXTT9=
EXTT10=
EXTT11=
EXTT12=
PLAYORDER=
